<svg width="312" height="111" viewBox="0 0 312 111" fill="none" xmlns="http://www.w3.org/2000/svg">
<path d="M0.632812 9.37891V6.39062H15.8555V9.37891H9.77344V31H6.67969V9.37891H0.632812ZM17.8594 31V6.39062H20.918V17.1133H24.082V20.1016H20.918V31H17.8594ZM25.8398 20.1016V17.1133H28.9688V6.39062H32.0625V31H28.9688V20.1016H25.8398ZM34.9102 31V6.39062H47.707V9.41406H37.9688V17.2188H44.4023V20.2773H37.9688V27.9766H47.707V31H34.9102ZM58.8867 24.6367V12.7891C58.8867 11.7578 59.2266 10.668 59.9062 9.51953C61.2188 7.29297 63.2109 6.19141 65.8828 6.21484V9.23828C64.7578 9.26172 63.8086 9.66016 63.0352 10.4336C62.332 11.1836 61.9805 11.9687 61.9805 12.7891V24.6367C61.9805 25.0352 62.1094 25.4922 62.3672 26.0078C63.0938 27.4375 64.2656 28.1523 65.8828 28.1523V31.1758C63.5859 31.1523 61.7578 30.2969 60.3984 28.6094C59.3906 27.3203 58.8867 25.9961 58.8867 24.6367ZM67.6055 31.1758V28.1523L68.3086 28.0469C68.7773 27.9766 69.293 27.7305 69.8555 27.3086C70.4414 26.8867 70.8398 26.3359 71.0508 25.6562C71.1445 25.3984 71.2148 25 71.2617 24.4609C71.2852 24.3438 71.2969 24.1562 71.2969 23.8984L74.2148 24.6016C74.2148 26.2656 73.6172 27.7422 72.4219 29.0312C71.0859 30.4609 69.4805 31.1758 67.6055 31.1758ZM67.6055 9.23828V6.21484C69.1758 6.21484 70.6406 6.83594 72 8.07812C73.4766 9.48438 74.2148 11.0781 74.2148 12.8594L71.2617 13.6328V13.0703C71.2148 12.6016 71.1445 12.2266 71.0508 11.9453C70.6055 10.7969 69.7969 9.97656 68.625 9.48438C67.9453 9.32031 67.6055 9.23828 67.6055 9.23828ZM76.7461 31V6.39062H89.543V9.41406H79.8047V17.2188H86.2383V20.2773H79.8047V27.9766H89.543V31H76.7461ZM92.3906 31V11.7695H92.6719L95.4492 16.2695V31H92.3906ZM92.3906 8.35938V6.39062H95.0273L108.035 27.2383V31H106.523L92.3906 8.35938ZM104.977 19.2578V6.39062H108.035V23.7578H107.754L104.977 19.2578ZM110.145 9.37891V6.39062H125.367V9.37891H119.285V31H116.191V9.37891H110.145ZM127.441 31V6.39062H130.5V31H127.441ZM132.258 20.3477V17.5703H135.457C137.941 17.5234 139.195 16.1406 139.219 13.4219C139.172 10.6328 137.754 9.22656 134.965 9.20312H132.258V6.39062H135.527C138.926 6.50781 141.023 7.92578 141.82 10.6445C142.055 11.418 142.172 12.2617 142.172 13.1758C142.148 15.8945 141.34 17.8047 139.746 18.9062C141.105 19.6328 141.926 20.957 142.207 22.8789C142.23 23.043 142.254 23.207 142.277 23.3711L142.875 31H139.992L139.465 24.7422C139.277 22.7266 138.762 21.4375 137.918 20.875C137.355 20.5 136.594 20.3242 135.633 20.3477H132.258ZM144.879 31L149.555 10.2227H150.117L151.312 15.6719L147.902 31H144.879ZM150.504 27.0625L151.172 24.0742H154.934L151.031 6.42578H154.09L159.645 31H156.586L155.707 27.0625H150.504ZM161.965 31V6.39062H165.023V27.9766H175.184V31H161.965ZM185.73 31V13.4219H186.047L188.789 20.1016V31H185.73ZM185.73 8.32422V6.39062H188.227L196.312 25.9727L202.078 12.9297H202.43V19.75L197.473 31H195.152L185.73 8.32422ZM204.188 31V6.39062H207.246V31H204.188ZM209.988 24.2148V6.39062H213.082V24.2148C213.082 25.7617 213.891 26.9219 215.508 27.6953C216.094 27.9766 216.586 28.1172 216.984 28.1172V31.1758C215.625 31.1758 214.266 30.6953 212.906 29.7344C210.984 28.3516 210.012 26.5117 209.988 24.2148ZM218.742 31.1758V28.1172C219.516 28.1172 220.312 27.8008 221.133 27.168C222.117 26.3945 222.621 25.4102 222.645 24.2148V6.39062H225.703V24.2148C225.703 26.8398 224.531 28.8203 222.188 30.1562C220.992 30.8359 219.844 31.1758 218.742 31.1758ZM227.883 25.4453L230.695 24.4609C230.836 25.4453 231.211 26.2539 231.82 26.8867C232.453 27.5195 233.051 27.9062 233.613 28.0469L234.422 28.2578V31.1055C232.359 31.1055 230.625 30.2266 229.219 28.4688C228.352 27.3672 227.906 26.3594 227.883 25.4453ZM228.164 13.0352C228.164 10.5039 229.254 8.60547 231.434 7.33984C232.512 6.70703 233.508 6.39062 234.422 6.39062V9.27344C233.602 9.36719 232.828 9.80078 232.102 10.5742C231.445 11.3008 231.117 12.1328 231.117 13.0703C231.117 14.5 232.148 15.5781 234.211 16.3047C234.727 16.4688 235.512 16.6914 236.566 16.9727C237.668 17.2773 238.441 17.5117 238.887 17.6758C240.996 18.543 242.344 19.7266 242.93 21.2266C243.234 21.9766 243.387 22.8203 243.387 23.7578C243.387 25.7969 242.602 27.5664 241.031 29.0664C239.602 30.4258 237.984 31.1055 236.18 31.1055V28.2578C237.141 28.2109 238.066 27.7539 238.957 26.8867C239.848 25.9727 240.305 24.9297 240.328 23.7578C240.328 22.1172 239.191 20.9219 236.918 20.1719C236.426 20.0078 235.676 19.8086 234.668 19.5742C233.59 19.3164 232.863 19.1055 232.488 18.9414C230.496 18.1211 229.219 17.043 228.656 15.707C228.328 14.9336 228.164 14.043 228.164 13.0352ZM236.18 9.27344V6.39062C238.219 6.39062 239.918 7.29297 241.277 9.09766C241.957 10.0117 242.332 10.832 242.402 11.5586L239.555 12.5078C239.227 10.8672 238.289 9.82422 236.742 9.37891C236.367 9.30859 236.18 9.27344 236.18 9.27344ZM245.742 31V6.39062H258.539V9.41406H248.801V17.2188H255.234V20.2773H248.801V27.9766H258.539V31H245.742ZM261.176 24.2148V6.39062H264.27V24.2148C264.27 25.7617 265.078 26.9219 266.695 27.6953C267.281 27.9766 267.773 28.1172 268.172 28.1172V31.1758C266.812 31.1758 265.453 30.6953 264.094 29.7344C262.172 28.3516 261.199 26.5117 261.176 24.2148ZM269.93 31.1758V28.1172C270.703 28.1172 271.5 27.8008 272.32 27.168C273.305 26.3945 273.809 25.4102 273.832 24.2148V6.39062H276.891V24.2148C276.891 26.8398 275.719 28.8203 273.375 30.1562C272.18 30.8359 271.031 31.1758 269.93 31.1758ZM279.668 31V13.4219H279.984L282.727 20.1016V31H279.668ZM279.668 8.32422V6.39062H282.164L290.25 25.9727L296.016 12.9297H296.367V19.75L291.41 31H289.09L279.668 8.32422ZM298.125 31V6.39062H301.184V31H298.125ZM1.37109 66.1445V54.5781C1.37109 53.3359 1.89844 52.0703 2.95312 50.7812C4.35938 49.0938 6.14062 48.2383 8.29688 48.2148V51.2734C6.86719 51.2734 5.75391 52 4.95703 53.4531C4.62891 54.0859 4.46484 54.6484 4.46484 55.1406V66.1445C4.46484 67.6211 5.19141 68.7695 6.64453 69.5898C7.25391 69.9414 7.79297 70.1172 8.26172 70.1172V73.1758C6.92578 73.1758 5.58984 72.6953 4.25391 71.7344C2.35547 70.3281 1.39453 68.4648 1.37109 66.1445ZM10.1953 73.1758V70.1172C11.0156 70.1172 11.8477 69.7539 12.6914 69.0273C13.582 68.2305 14.0391 67.2695 14.0625 66.1445V55.1406C14.0625 54.2266 13.6875 53.3477 12.9375 52.5039C12.1641 51.707 11.25 51.2969 10.1953 51.2734V48.2148C12.5625 48.2148 14.4609 49.2344 15.8906 51.2734C16.7109 52.4453 17.1211 53.5469 17.1211 54.5781V66.1445C17.1211 68.7461 15.9609 70.7383 13.6406 72.1211C12.4219 72.8242 11.2734 73.1758 10.1953 73.1758ZM19.9336 72.9648V48.3906H32.7305V51.4141H22.9922V59.2188H29.4258V62.2773H22.9922V72.9648H19.9336ZM43.6992 66.6367V54.7891C43.6992 53.7578 44.0391 52.668 44.7188 51.5195C46.0312 49.293 48.0234 48.1914 50.6953 48.2148V51.2383C49.5703 51.2617 48.6211 51.6602 47.8477 52.4336C47.1445 53.1836 46.793 53.9688 46.793 54.7891V66.6367C46.793 67.0352 46.9219 67.4922 47.1797 68.0078C47.9062 69.4375 49.0781 70.1523 50.6953 70.1523V73.1758C48.3984 73.1523 46.5703 72.2969 45.2109 70.6094C44.2031 69.3203 43.6992 67.9961 43.6992 66.6367ZM52.418 73.1758V70.1523L53.1211 70.0469C53.5898 69.9766 54.1055 69.7305 54.668 69.3086C55.2539 68.8867 55.6523 68.3359 55.8633 67.6562C55.957 67.3984 56.0273 67 56.0742 66.4609C56.0977 66.3438 56.1094 66.1562 56.1094 65.8984L59.0273 66.6016C59.0273 68.2656 58.4297 69.7422 57.2344 71.0312C55.8984 72.4609 54.293 73.1758 52.418 73.1758ZM52.418 51.2383V48.2148C53.9883 48.2148 55.4531 48.8359 56.8125 50.0781C58.2891 51.4844 59.0273 53.0781 59.0273 54.8594L56.0742 55.6328V55.0703C56.0273 54.6016 55.957 54.2266 55.8633 53.9453C55.418 52.7969 54.6094 51.9766 53.4375 51.4844C52.7578 51.3203 52.418 51.2383 52.418 51.2383ZM61.4883 66.1445V54.5781C61.4883 53.3359 62.0156 52.0703 63.0703 50.7812C64.4766 49.0938 66.2578 48.2383 68.4141 48.2148V51.2734C66.9844 51.2734 65.8711 52 65.0742 53.4531C64.7461 54.0859 64.582 54.6484 64.582 55.1406V66.1445C64.582 67.6211 65.3086 68.7695 66.7617 69.5898C67.3711 69.9414 67.9102 70.1172 68.3789 70.1172V73.1758C67.043 73.1758 65.707 72.6953 64.3711 71.7344C62.4727 70.3281 61.5117 68.4648 61.4883 66.1445ZM70.3125 73.1758V70.1172C71.1328 70.1172 71.9648 69.7539 72.8086 69.0273C73.6992 68.2305 74.1562 67.2695 74.1797 66.1445V55.1406C74.1797 54.2266 73.8047 53.3477 73.0547 52.5039C72.2812 51.707 71.3672 51.2969 70.3125 51.2734V48.2148C72.6797 48.2148 74.5781 49.2344 76.0078 51.2734C76.8281 52.4453 77.2383 53.5469 77.2383 54.5781V66.1445C77.2383 68.7461 76.0781 70.7383 73.7578 72.1211C72.5391 72.8242 71.3906 73.1758 70.3125 73.1758ZM80.0859 73V55.4219H80.4023L83.1445 62.1016V73H80.0859ZM80.0859 50.3242V48.3906H82.582L90.668 67.9727L96.4336 54.9297H96.7852V61.75L91.8281 73H89.5078L80.0859 50.3242ZM98.543 73V48.3906H101.602V73H98.543ZM104.555 73V55.4219H104.871L107.613 62.1016V73H104.555ZM104.555 50.3242V48.3906H107.051L115.137 67.9727L120.902 54.9297H121.254V61.75L116.297 73H113.977L104.555 50.3242ZM123.012 73V48.3906H126.07V73H123.012ZM128.812 66.2148V48.3906H131.906V66.2148C131.906 67.7617 132.715 68.9219 134.332 69.6953C134.918 69.9766 135.41 70.1172 135.809 70.1172V73.1758C134.449 73.1758 133.09 72.6953 131.73 71.7344C129.809 70.3516 128.836 68.5117 128.812 66.2148ZM137.566 73.1758V70.1172C138.34 70.1172 139.137 69.8008 139.957 69.168C140.941 68.3945 141.445 67.4102 141.469 66.2148V48.3906H144.527V66.2148C144.527 68.8398 143.355 70.8203 141.012 72.1562C139.816 72.8359 138.668 73.1758 137.566 73.1758ZM147.305 73V53.7695H147.586L150.363 58.2695V73H147.305ZM147.305 50.3594V48.3906H149.941L162.949 69.2383V73H161.438L147.305 50.3594ZM159.891 61.2578V48.3906H162.949V65.7578H162.668L159.891 61.2578ZM165.902 73V48.3906H168.961V73H165.902ZM171.809 66.6367V54.7891C171.809 53.7578 172.148 52.668 172.828 51.5195C174.141 49.293 176.133 48.1914 178.805 48.2148V51.2383C177.68 51.2617 176.73 51.6602 175.957 52.4336C175.254 53.1836 174.902 53.9688 174.902 54.7891V66.6367C174.902 67.0352 175.031 67.4922 175.289 68.0078C176.016 69.4375 177.188 70.1523 178.805 70.1523V73.1758C176.508 73.1523 174.68 72.2969 173.32 70.6094C172.312 69.3203 171.809 67.9961 171.809 66.6367ZM180.527 73.1758V70.1523L181.23 70.0469C181.699 69.9766 182.215 69.7305 182.777 69.3086C183.363 68.8867 183.762 68.3359 183.973 67.6562C184.066 67.3984 184.137 67 184.184 66.4609C184.207 66.3438 184.219 66.1562 184.219 65.8984L187.137 66.6016C187.137 68.2656 186.539 69.7422 185.344 71.0312C184.008 72.4609 182.402 73.1758 180.527 73.1758ZM180.527 51.2383V48.2148C182.098 48.2148 183.562 48.8359 184.922 50.0781C186.398 51.4844 187.137 53.0781 187.137 54.8594L184.184 55.6328V55.0703C184.137 54.6016 184.066 54.2266 183.973 53.9453C183.527 52.7969 182.719 51.9766 181.547 51.4844C180.867 51.3203 180.527 51.2383 180.527 51.2383ZM189.316 73L193.992 52.2227H194.555L195.75 57.6719L192.34 73H189.316ZM194.941 69.0625L195.609 66.0742H199.371L195.469 48.4258H198.527L204.082 73H201.023L200.145 69.0625H194.941ZM205.594 51.3789V48.3906H220.816V51.3789H214.734V73H211.641V51.3789H205.594ZM222.891 73V48.3906H225.949V73H222.891ZM228.797 66.1445V54.5781C228.797 53.3359 229.324 52.0703 230.379 50.7812C231.785 49.0938 233.566 48.2383 235.723 48.2148V51.2734C234.293 51.2734 233.18 52 232.383 53.4531C232.055 54.0859 231.891 54.6484 231.891 55.1406V66.1445C231.891 67.6211 232.617 68.7695 234.07 69.5898C234.68 69.9414 235.219 70.1172 235.688 70.1172V73.1758C234.352 73.1758 233.016 72.6953 231.68 71.7344C229.781 70.3281 228.82 68.4648 228.797 66.1445ZM237.621 73.1758V70.1172C238.441 70.1172 239.273 69.7539 240.117 69.0273C241.008 68.2305 241.465 67.2695 241.488 66.1445V55.1406C241.488 54.2266 241.113 53.3477 240.363 52.5039C239.59 51.707 238.676 51.2969 237.621 51.2734V48.2148C239.988 48.2148 241.887 49.2344 243.316 51.2734C244.137 52.4453 244.547 53.5469 244.547 54.5781V66.1445C244.547 68.7461 243.387 70.7383 241.066 72.1211C239.848 72.8242 238.699 73.1758 237.621 73.1758ZM247.395 73V53.7695H247.676L250.453 58.2695V73H247.395ZM247.395 50.3594V48.3906H250.031L263.039 69.2383V73H261.527L247.395 50.3594ZM259.98 61.2578V48.3906H263.039V65.7578H262.758L259.98 61.2578Z" fill="white"/>
<path d="M1.116 95V86.48H1.944V93.848L7.224 86.48H8.004V95H7.176V87.764L1.956 95H1.116ZM19.1732 95V88.064L16.0892 93.452H15.5612L12.4652 88.064V95H11.6252V86.48H12.4892L15.8132 92.312L19.1612 86.48H20.0132V95H19.1732ZM29.3126 94.256V95H23.5886V86.48H29.2046V87.224H24.4286V90.296H28.5926V91.004H24.4286V94.256H29.3126ZM39.0611 86.48V95H38.2331V91.016H33.1811V95H32.3411V86.48H33.1811V90.272H38.2331V86.48H39.0611ZM42.6885 95V86.48H43.5165V93.848L48.7965 86.48H49.5765V95H48.7485V87.764L43.5285 95H42.6885ZM59.9613 86.48H60.6693L64.2093 95H63.3213L62.2173 92.336H58.3893L57.2973 95H56.3973L59.9613 86.48ZM62.0253 91.676L60.3093 87.464L58.5693 91.676H62.0253ZM66.5827 95V93.824H67.2907V95H66.5827ZM69.8326 90.68C69.8326 90.16 69.9206 89.652 70.0966 89.156C70.2806 88.652 70.5446 88.196 70.8886 87.788C71.2326 87.372 71.6566 87.044 72.1606 86.804C72.6646 86.556 73.2366 86.432 73.8766 86.432C74.6366 86.432 75.2846 86.608 75.8206 86.96C76.3646 87.304 76.7646 87.748 77.0206 88.292L76.3606 88.7C76.1766 88.324 75.9446 88.028 75.6646 87.812C75.3846 87.588 75.0846 87.428 74.7646 87.332C74.4526 87.236 74.1406 87.188 73.8286 87.188C73.3166 87.188 72.8646 87.292 72.4726 87.5C72.0806 87.7 71.7486 87.972 71.4766 88.316C71.2126 88.652 71.0126 89.032 70.8766 89.456C70.7406 89.872 70.6726 90.296 70.6726 90.728C70.6726 91.2 70.7526 91.652 70.9126 92.084C71.0726 92.516 71.2966 92.9 71.5846 93.236C71.8726 93.564 72.2086 93.828 72.5926 94.028C72.9846 94.22 73.4086 94.316 73.8646 94.316C74.1846 94.316 74.5126 94.26 74.8486 94.148C75.1846 94.036 75.4966 93.864 75.7846 93.632C76.0806 93.4 76.3166 93.1 76.4926 92.732L77.1886 93.092C77.0126 93.516 76.7406 93.876 76.3726 94.172C76.0046 94.468 75.5926 94.692 75.1366 94.844C74.6886 94.996 74.2486 95.072 73.8166 95.072C73.2326 95.072 72.6966 94.948 72.2086 94.7C71.7206 94.444 71.2966 94.108 70.9366 93.692C70.5846 93.268 70.3126 92.796 70.1206 92.276C69.9286 91.748 69.8326 91.216 69.8326 90.68ZM84.5618 95V86.48H90.9938V95H90.1538V87.224H85.4018V95H84.5618ZM98.0002 95.06C97.4002 95.06 96.8562 94.94 96.3682 94.7C95.8802 94.46 95.4602 94.136 95.1082 93.728C94.7562 93.312 94.4842 92.848 94.2922 92.336C94.1002 91.816 94.0042 91.284 94.0042 90.74C94.0042 90.172 94.1042 89.632 94.3042 89.12C94.5042 88.6 94.7842 88.14 95.1442 87.74C95.5122 87.332 95.9402 87.012 96.4282 86.78C96.9162 86.54 97.4442 86.42 98.0122 86.42C98.6122 86.42 99.1562 86.544 99.6442 86.792C100.132 87.04 100.548 87.372 100.892 87.788C101.244 88.204 101.516 88.668 101.708 89.18C101.9 89.692 101.996 90.216 101.996 90.752C101.996 91.32 101.896 91.864 101.696 92.384C101.496 92.896 101.216 93.356 100.856 93.764C100.496 94.164 100.072 94.48 99.5842 94.712C99.0962 94.944 98.5682 95.06 98.0002 95.06ZM94.8442 90.74C94.8442 91.204 94.9202 91.652 95.0722 92.084C95.2242 92.508 95.4402 92.888 95.7202 93.224C96.0002 93.552 96.3322 93.816 96.7162 94.016C97.1082 94.208 97.5362 94.304 98.0002 94.304C98.4882 94.304 98.9242 94.204 99.3082 94.004C99.7002 93.796 100.032 93.524 100.304 93.188C100.584 92.844 100.796 92.46 100.94 92.036C101.084 91.612 101.156 91.18 101.156 90.74C101.156 90.276 101.08 89.832 100.928 89.408C100.776 88.984 100.556 88.604 100.268 88.268C99.9882 87.932 99.6562 87.668 99.2722 87.476C98.8882 87.284 98.4642 87.188 98.0002 87.188C97.5202 87.188 97.0842 87.288 96.6922 87.488C96.3082 87.688 95.9762 87.96 95.6962 88.304C95.4242 88.64 95.2122 89.02 95.0602 89.444C94.9162 89.868 94.8442 90.3 94.8442 90.74ZM105.02 95V86.48H111.452V95H110.612V87.224H105.86V95H105.02ZM118.458 95.06C117.858 95.06 117.314 94.94 116.826 94.7C116.338 94.46 115.918 94.136 115.566 93.728C115.214 93.312 114.942 92.848 114.75 92.336C114.558 91.816 114.462 91.284 114.462 90.74C114.462 90.172 114.562 89.632 114.762 89.12C114.962 88.6 115.242 88.14 115.602 87.74C115.97 87.332 116.398 87.012 116.886 86.78C117.374 86.54 117.902 86.42 118.47 86.42C119.07 86.42 119.614 86.544 120.102 86.792C120.59 87.04 121.006 87.372 121.35 87.788C121.702 88.204 121.974 88.668 122.166 89.18C122.358 89.692 122.454 90.216 122.454 90.752C122.454 91.32 122.354 91.864 122.154 92.384C121.954 92.896 121.674 93.356 121.314 93.764C120.954 94.164 120.53 94.48 120.042 94.712C119.554 94.944 119.026 95.06 118.458 95.06ZM115.302 90.74C115.302 91.204 115.378 91.652 115.53 92.084C115.682 92.508 115.898 92.888 116.178 93.224C116.458 93.552 116.79 93.816 117.174 94.016C117.566 94.208 117.994 94.304 118.458 94.304C118.946 94.304 119.382 94.204 119.766 94.004C120.158 93.796 120.49 93.524 120.762 93.188C121.042 92.844 121.254 92.46 121.398 92.036C121.542 91.612 121.614 91.18 121.614 90.74C121.614 90.276 121.538 89.832 121.386 89.408C121.234 88.984 121.014 88.604 120.726 88.268C120.446 87.932 120.114 87.668 119.73 87.476C119.346 87.284 118.922 87.188 118.458 87.188C117.978 87.188 117.542 87.288 117.15 87.488C116.766 87.688 116.434 87.96 116.154 88.304C115.882 88.64 115.67 89.02 115.518 89.444C115.374 89.868 115.302 90.3 115.302 90.74ZM131.886 92.804C131.886 93.228 131.778 93.608 131.562 93.944C131.346 94.272 131.054 94.532 130.686 94.724C130.326 94.908 129.93 95 129.498 95H125.478V86.48H129.582C129.982 86.48 130.326 86.588 130.614 86.804C130.91 87.012 131.134 87.284 131.286 87.62C131.446 87.948 131.526 88.292 131.526 88.652C131.526 89.076 131.418 89.468 131.202 89.828C130.986 90.188 130.686 90.456 130.302 90.632C130.79 90.776 131.174 91.044 131.454 91.436C131.742 91.828 131.886 92.284 131.886 92.804ZM131.046 92.66C131.046 92.372 130.982 92.108 130.854 91.868C130.726 91.62 130.55 91.42 130.326 91.268C130.11 91.116 129.862 91.04 129.582 91.04H126.318V94.268H129.498C129.786 94.268 130.046 94.192 130.278 94.04C130.51 93.888 130.694 93.692 130.83 93.452C130.974 93.204 131.046 92.94 131.046 92.66ZM126.318 87.212V90.356H129.246C129.526 90.356 129.774 90.284 129.99 90.14C130.206 89.988 130.378 89.792 130.506 89.552C130.634 89.312 130.698 89.056 130.698 88.784C130.698 88.496 130.638 88.236 130.518 88.004C130.398 87.764 130.234 87.572 130.026 87.428C129.818 87.284 129.582 87.212 129.318 87.212H126.318ZM137.374 86.48H138.082L141.622 95H140.734L139.63 92.336H135.802L134.71 95H133.81L137.374 86.48ZM139.438 91.676L137.722 87.464L135.982 91.676H139.438Z" fill="white"/>
</svg>
